<?xml version="1.0" encoding="UTF-8"?>
<svg version="1.1" baseProfile="tiny" xmlns="http://www.w3.org/2000/svg" width="493" height="493">
<rect shape-rendering="optimizeSpeed"  x="0" y="0" width="493" height="493" fill="white" />
<rect shape-rendering="optimizeSpeed"  x="0" y="0" width="17" height="17" fill="black" />
<rect shape-rendering="optimizeSpeed"  x="17" y="0" width="17" height="17" fill="black" />
<rect shape-rendering="optimizeSpeed"  x="34" y="0" width="17" height="17" fill="black" />
<rect shape-rendering="optimizeSpeed"  x="51" y="0" width="17" height="17" fill="black" />
<rect shape-rendering="optimizeSpeed"  x="68" y="0" width="17" height="17" fill="black" />
<rect shape-rendering="optimizeSpeed"  x="85" y="0" width="17" height="17" fill="black" />
<rect shape-rendering="optimizeSpeed"  x="102" y="0" width="17" height="17" fill="black" />
<rect shape-rendering="optimizeSpeed"  x="153" y="0" width="17" height="17" fill="black" />
<rect shape-rendering="optimizeSpeed"  x="187" y="0" width="17" height="17" fill="black" />
<rect shape-rendering="optimizeSpeed"  x="272" y="0" width="17" height="17" fill="black" />
<rect shape-rendering="optimizeSpeed"  x="323" y="0" width="17" height="17" fill="black" />
<rect shape-rendering="optimizeSpeed"  x="340" y="0" width="17" height="17" fill="black" />
<rect shape-rendering="optimizeSpeed"  x="374" y="0" width="17" height="17" fill="black" />
<rect shape-rendering="optimizeSpeed"  x="391" y="0" width="17" height="17" fill="black" />
<rect shape-rendering="optimizeSpeed"  x="408" y="0" width="17" height="17" fill="black" />
<rect shape-rendering="optimizeSpeed"  x="425" y="0" width="17" height="17" fill="black" />
<rect shape-rendering="optimizeSpeed"  x="442" y="0" width="17" height="17" fill="black" />
<rect shape-rendering="optimizeSpeed"  x="459" y="0" width="17" height="17" fill="black" />
<rect shape-rendering="optimizeSpeed"  x="476" y="0" width="17" height="17" fill="black" />
<rect shape-rendering="optimizeSpeed"  x="0" y="17" width="17" height="17" fill="black" />
<rect shape-rendering="optimizeSpeed"  x="102" y="17" width="17" height="17" fill="black" />
<rect shape-rendering="optimizeSpeed"  x="136" y="17" width="17" height="17" fill="black" />
<rect shape-rendering="optimizeSpeed"  x="153" y="17" width="17" height="17" fill="black" />
<rect shape-rendering="optimizeSpeed"  x="170" y="17" width="17" height="17" fill="black" />
<rect shape-rendering="optimizeSpeed"  x="238" y="17" width="17" height="17" fill="black" />
<rect shape-rendering="optimizeSpeed"  x="255" y="17" width="17" height="17" fill="black" />
<rect shape-rendering="optimizeSpeed"  x="289" y="17" width="17" height="17" fill="black" />
<rect shape-rendering="optimizeSpeed"  x="306" y="17" width="17" height="17" fill="black" />
<rect shape-rendering="optimizeSpeed"  x="374" y="17" width="17" height="17" fill="black" />
<rect shape-rendering="optimizeSpeed"  x="476" y="17" width="17" height="17" fill="black" />
<rect shape-rendering="optimizeSpeed"  x="0" y="34" width="17" height="17" fill="black" />
<rect shape-rendering="optimizeSpeed"  x="34" y="34" width="17" height="17" fill="black" />
<rect shape-rendering="optimizeSpeed"  x="51" y="34" width="17" height="17" fill="black" />
<rect shape-rendering="optimizeSpeed"  x="68" y="34" width="17" height="17" fill="black" />
<rect shape-rendering="optimizeSpeed"  x="102" y="34" width="17" height="17" fill="black" />
<rect shape-rendering="optimizeSpeed"  x="153" y="34" width="17" height="17" fill="black" />
<rect shape-rendering="optimizeSpeed"  x="170" y="34" width="17" height="17" fill="black" />
<rect shape-rendering="optimizeSpeed"  x="187" y="34" width="17" height="17" fill="black" />
<rect shape-rendering="optimizeSpeed"  x="238" y="34" width="17" height="17" fill="black" />
<rect shape-rendering="optimizeSpeed"  x="306" y="34" width="17" height="17" fill="black" />
<rect shape-rendering="optimizeSpeed"  x="374" y="34" width="17" height="17" fill="black" />
<rect shape-rendering="optimizeSpeed"  x="408" y="34" width="17" height="17" fill="black" />
<rect shape-rendering="optimizeSpeed"  x="425" y="34" width="17" height="17" fill="black" />
<rect shape-rendering="optimizeSpeed"  x="442" y="34" width="17" height="17" fill="black" />
<rect shape-rendering="optimizeSpeed"  x="476" y="34" width="17" height="17" fill="black" />
<rect shape-rendering="optimizeSpeed"  x="0" y="51" width="17" height="17" fill="black" />
<rect shape-rendering="optimizeSpeed"  x="34" y="51" width="17" height="17" fill="black" />
<rect shape-rendering="optimizeSpeed"  x="51" y="51" width="17" height="17" fill="black" />
<rect shape-rendering="optimizeSpeed"  x="68" y="51" width="17" height="17" fill="black" />
<rect shape-rendering="optimizeSpeed"  x="102" y="51" width="17" height="17" fill="black" />
<rect shape-rendering="optimizeSpeed"  x="136" y="51" width="17" height="17" fill="black" />
<rect shape-rendering="optimizeSpeed"  x="170" y="51" width="17" height="17" fill="black" />
<rect shape-rendering="optimizeSpeed"  x="204" y="51" width="17" height="17" fill="black" />
<rect shape-rendering="optimizeSpeed"  x="221" y="51" width="17" height="17" fill="black" />
<rect shape-rendering="optimizeSpeed"  x="238" y="51" width="17" height="17" fill="black" />
<rect shape-rendering="optimizeSpeed"  x="255" y="51" width="17" height="17" fill="black" />
<rect shape-rendering="optimizeSpeed"  x="272" y="51" width="17" height="17" fill="black" />
<rect shape-rendering="optimizeSpeed"  x="289" y="51" width="17" height="17" fill="black" />
<rect shape-rendering="optimizeSpeed"  x="340" y="51" width="17" height="17" fill="black" />
<rect shape-rendering="optimizeSpeed"  x="374" y="51" width="17" height="17" fill="black" />
<rect shape-rendering="optimizeSpeed"  x="408" y="51" width="17" height="17" fill="black" />
<rect shape-rendering="optimizeSpeed"  x="425" y="51" width="17" height="17" fill="black" />
<rect shape-rendering="optimizeSpeed"  x="442" y="51" width="17" height="17" fill="black" />
<rect shape-rendering="optimizeSpeed"  x="476" y="51" width="17" height="17" fill="black" />
<rect shape-rendering="optimizeSpeed"  x="0" y="68" width="17" height="17" fill="black" />
<rect shape-rendering="optimizeSpeed"  x="34" y="68" width="17" height="17" fill="black" />
<rect shape-rendering="optimizeSpeed"  x="51" y="68" width="17" height="17" fill="black" />
<rect shape-rendering="optimizeSpeed"  x="68" y="68" width="17" height="17" fill="black" />
<rect shape-rendering="optimizeSpeed"  x="102" y="68" width="17" height="17" fill="black" />
<rect shape-rendering="optimizeSpeed"  x="153" y="68" width="17" height="17" fill="black" />
<rect shape-rendering="optimizeSpeed"  x="170" y="68" width="17" height="17" fill="black" />
<rect shape-rendering="optimizeSpeed"  x="187" y="68" width="17" height="17" fill="black" />
<rect shape-rendering="optimizeSpeed"  x="238" y="68" width="17" height="17" fill="black" />
<rect shape-rendering="optimizeSpeed"  x="272" y="68" width="17" height="17" fill="black" />
<rect shape-rendering="optimizeSpeed"  x="306" y="68" width="17" height="17" fill="black" />
<rect shape-rendering="optimizeSpeed"  x="323" y="68" width="17" height="17" fill="black" />
<rect shape-rendering="optimizeSpeed"  x="340" y="68" width="17" height="17" fill="black" />
<rect shape-rendering="optimizeSpeed"  x="374" y="68" width="17" height="17" fill="black" />
<rect shape-rendering="optimizeSpeed"  x="408" y="68" width="17" height="17" fill="black" />
<rect shape-rendering="optimizeSpeed"  x="425" y="68" width="17" height="17" fill="black" />
<rect shape-rendering="optimizeSpeed"  x="442" y="68" width="17" height="17" fill="black" />
<rect shape-rendering="optimizeSpeed"  x="476" y="68" width="17" height="17" fill="black" />
<rect shape-rendering="optimizeSpeed"  x="0" y="85" width="17" height="17" fill="black" />
<rect shape-rendering="optimizeSpeed"  x="102" y="85" width="17" height="17" fill="black" />
<rect shape-rendering="optimizeSpeed"  x="136" y="85" width="17" height="17" fill="black" />
<rect shape-rendering="optimizeSpeed"  x="221" y="85" width="17" height="17" fill="black" />
<rect shape-rendering="optimizeSpeed"  x="255" y="85" width="17" height="17" fill="black" />
<rect shape-rendering="optimizeSpeed"  x="272" y="85" width="17" height="17" fill="black" />
<rect shape-rendering="optimizeSpeed"  x="340" y="85" width="17" height="17" fill="black" />
<rect shape-rendering="optimizeSpeed"  x="374" y="85" width="17" height="17" fill="black" />
<rect shape-rendering="optimizeSpeed"  x="476" y="85" width="17" height="17" fill="black" />
<rect shape-rendering="optimizeSpeed"  x="0" y="102" width="17" height="17" fill="black" />
<rect shape-rendering="optimizeSpeed"  x="17" y="102" width="17" height="17" fill="black" />
<rect shape-rendering="optimizeSpeed"  x="34" y="102" width="17" height="17" fill="black" />
<rect shape-rendering="optimizeSpeed"  x="51" y="102" width="17" height="17" fill="black" />
<rect shape-rendering="optimizeSpeed"  x="68" y="102" width="17" height="17" fill="black" />
<rect shape-rendering="optimizeSpeed"  x="85" y="102" width="17" height="17" fill="black" />
<rect shape-rendering="optimizeSpeed"  x="102" y="102" width="17" height="17" fill="black" />
<rect shape-rendering="optimizeSpeed"  x="136" y="102" width="17" height="17" fill="black" />
<rect shape-rendering="optimizeSpeed"  x="170" y="102" width="17" height="17" fill="black" />
<rect shape-rendering="optimizeSpeed"  x="204" y="102" width="17" height="17" fill="black" />
<rect shape-rendering="optimizeSpeed"  x="238" y="102" width="17" height="17" fill="black" />
<rect shape-rendering="optimizeSpeed"  x="272" y="102" width="17" height="17" fill="black" />
<rect shape-rendering="optimizeSpeed"  x="306" y="102" width="17" height="17" fill="black" />
<rect shape-rendering="optimizeSpeed"  x="340" y="102" width="17" height="17" fill="black" />
<rect shape-rendering="optimizeSpeed"  x="374" y="102" width="17" height="17" fill="black" />
<rect shape-rendering="optimizeSpeed"  x="391" y="102" width="17" height="17" fill="black" />
<rect shape-rendering="optimizeSpeed"  x="408" y="102" width="17" height="17" fill="black" />
<rect shape-rendering="optimizeSpeed"  x="425" y="102" width="17" height="17" fill="black" />
<rect shape-rendering="optimizeSpeed"  x="442" y="102" width="17" height="17" fill="black" />
<rect shape-rendering="optimizeSpeed"  x="459" y="102" width="17" height="17" fill="black" />
<rect shape-rendering="optimizeSpeed"  x="476" y="102" width="17" height="17" fill="black" />
<rect shape-rendering="optimizeSpeed"  x="153" y="119" width="17" height="17" fill="black" />
<rect shape-rendering="optimizeSpeed"  x="170" y="119" width="17" height="17" fill="black" />
<rect shape-rendering="optimizeSpeed"  x="204" y="119" width="17" height="17" fill="black" />
<rect shape-rendering="optimizeSpeed"  x="238" y="119" width="17" height="17" fill="black" />
<rect shape-rendering="optimizeSpeed"  x="272" y="119" width="17" height="17" fill="black" />
<rect shape-rendering="optimizeSpeed"  x="323" y="119" width="17" height="17" fill="black" />
<rect shape-rendering="optimizeSpeed"  x="340" y="119" width="17" height="17" fill="black" />
<rect shape-rendering="optimizeSpeed"  x="0" y="136" width="17" height="17" fill="black" />
<rect shape-rendering="optimizeSpeed"  x="17" y="136" width="17" height="17" fill="black" />
<rect shape-rendering="optimizeSpeed"  x="34" y="136" width="17" height="17" fill="black" />
<rect shape-rendering="optimizeSpeed"  x="51" y="136" width="17" height="17" fill="black" />
<rect shape-rendering="optimizeSpeed"  x="68" y="136" width="17" height="17" fill="black" />
<rect shape-rendering="optimizeSpeed"  x="102" y="136" width="17" height="17" fill="black" />
<rect shape-rendering="optimizeSpeed"  x="119" y="136" width="17" height="17" fill="black" />
<rect shape-rendering="optimizeSpeed"  x="136" y="136" width="17" height="17" fill="black" />
<rect shape-rendering="optimizeSpeed"  x="153" y="136" width="17" height="17" fill="black" />
<rect shape-rendering="optimizeSpeed"  x="204" y="136" width="17" height="17" fill="black" />
<rect shape-rendering="optimizeSpeed"  x="221" y="136" width="17" height="17" fill="black" />
<rect shape-rendering="optimizeSpeed"  x="238" y="136" width="17" height="17" fill="black" />
<rect shape-rendering="optimizeSpeed"  x="289" y="136" width="17" height="17" fill="black" />
<rect shape-rendering="optimizeSpeed"  x="323" y="136" width="17" height="17" fill="black" />
<rect shape-rendering="optimizeSpeed"  x="357" y="136" width="17" height="17" fill="black" />
<rect shape-rendering="optimizeSpeed"  x="391" y="136" width="17" height="17" fill="black" />
<rect shape-rendering="optimizeSpeed"  x="425" y="136" width="17" height="17" fill="black" />
<rect shape-rendering="optimizeSpeed"  x="459" y="136" width="17" height="17" fill="black" />
<rect shape-rendering="optimizeSpeed"  x="34" y="153" width="17" height="17" fill="black" />
<rect shape-rendering="optimizeSpeed"  x="68" y="153" width="17" height="17" fill="black" />
<rect shape-rendering="optimizeSpeed"  x="119" y="153" width="17" height="17" fill="black" />
<rect shape-rendering="optimizeSpeed"  x="136" y="153" width="17" height="17" fill="black" />
<rect shape-rendering="optimizeSpeed"  x="187" y="153" width="17" height="17" fill="black" />
<rect shape-rendering="optimizeSpeed"  x="238" y="153" width="17" height="17" fill="black" />
<rect shape-rendering="optimizeSpeed"  x="323" y="153" width="17" height="17" fill="black" />
<rect shape-rendering="optimizeSpeed"  x="357" y="153" width="17" height="17" fill="black" />
<rect shape-rendering="optimizeSpeed"  x="374" y="153" width="17" height="17" fill="black" />
<rect shape-rendering="optimizeSpeed"  x="391" y="153" width="17" height="17" fill="black" />
<rect shape-rendering="optimizeSpeed"  x="408" y="153" width="17" height="17" fill="black" />
<rect shape-rendering="optimizeSpeed"  x="476" y="153" width="17" height="17" fill="black" />
<rect shape-rendering="optimizeSpeed"  x="17" y="170" width="17" height="17" fill="black" />
<rect shape-rendering="optimizeSpeed"  x="34" y="170" width="17" height="17" fill="black" />
<rect shape-rendering="optimizeSpeed"  x="85" y="170" width="17" height="17" fill="black" />
<rect shape-rendering="optimizeSpeed"  x="102" y="170" width="17" height="17" fill="black" />
<rect shape-rendering="optimizeSpeed"  x="136" y="170" width="17" height="17" fill="black" />
<rect shape-rendering="optimizeSpeed"  x="170" y="170" width="17" height="17" fill="black" />
<rect shape-rendering="optimizeSpeed"  x="255" y="170" width="17" height="17" fill="black" />
<rect shape-rendering="optimizeSpeed"  x="272" y="170" width="17" height="17" fill="black" />
<rect shape-rendering="optimizeSpeed"  x="289" y="170" width="17" height="17" fill="black" />
<rect shape-rendering="optimizeSpeed"  x="306" y="170" width="17" height="17" fill="black" />
<rect shape-rendering="optimizeSpeed"  x="34" y="187" width="17" height="17" fill="black" />
<rect shape-rendering="optimizeSpeed"  x="68" y="187" width="17" height="17" fill="black" />
<rect shape-rendering="optimizeSpeed"  x="119" y="187" width="17" height="17" fill="black" />
<rect shape-rendering="optimizeSpeed"  x="340" y="187" width="17" height="17" fill="black" />
<rect shape-rendering="optimizeSpeed"  x="357" y="187" width="17" height="17" fill="black" />
<rect shape-rendering="optimizeSpeed"  x="391" y="187" width="17" height="17" fill="black" />
<rect shape-rendering="optimizeSpeed"  x="425" y="187" width="17" height="17" fill="black" />
<rect shape-rendering="optimizeSpeed"  x="459" y="187" width="17" height="17" fill="black" />
<rect shape-rendering="optimizeSpeed"  x="102" y="204" width="17" height="17" fill="black" />
<rect shape-rendering="optimizeSpeed"  x="153" y="204" width="17" height="17" fill="black" />
<rect shape-rendering="optimizeSpeed"  x="170" y="204" width="17" height="17" fill="black" />
<rect shape-rendering="optimizeSpeed"  x="187" y="204" width="17" height="17" fill="black" />
<rect shape-rendering="optimizeSpeed"  x="204" y="204" width="17" height="17" fill="black" />
<rect shape-rendering="optimizeSpeed"  x="221" y="204" width="17" height="17" fill="black" />
<rect shape-rendering="optimizeSpeed"  x="238" y="204" width="17" height="17" fill="black" />
<rect shape-rendering="optimizeSpeed"  x="255" y="204" width="17" height="17" fill="black" />
<rect shape-rendering="optimizeSpeed"  x="272" y="204" width="17" height="17" fill="black" />
<rect shape-rendering="optimizeSpeed"  x="289" y="204" width="17" height="17" fill="black" />
<rect shape-rendering="optimizeSpeed"  x="340" y="204" width="17" height="17" fill="black" />
<rect shape-rendering="optimizeSpeed"  x="425" y="204" width="17" height="17" fill="black" />
<rect shape-rendering="optimizeSpeed"  x="442" y="204" width="17" height="17" fill="black" />
<rect shape-rendering="optimizeSpeed"  x="0" y="221" width="17" height="17" fill="black" />
<rect shape-rendering="optimizeSpeed"  x="17" y="221" width="17" height="17" fill="black" />
<rect shape-rendering="optimizeSpeed"  x="51" y="221" width="17" height="17" fill="black" />
<rect shape-rendering="optimizeSpeed"  x="68" y="221" width="17" height="17" fill="black" />
<rect shape-rendering="optimizeSpeed"  x="85" y="221" width="17" height="17" fill="black" />
<rect shape-rendering="optimizeSpeed"  x="187" y="221" width="17" height="17" fill="black" />
<rect shape-rendering="optimizeSpeed"  x="221" y="221" width="17" height="17" fill="black" />
<rect shape-rendering="optimizeSpeed"  x="272" y="221" width="17" height="17" fill="black" />
<rect shape-rendering="optimizeSpeed"  x="306" y="221" width="17" height="17" fill="black" />
<rect shape-rendering="optimizeSpeed"  x="323" y="221" width="17" height="17" fill="black" />
<rect shape-rendering="optimizeSpeed"  x="340" y="221" width="17" height="17" fill="black" />
<rect shape-rendering="optimizeSpeed"  x="374" y="221" width="17" height="17" fill="black" />
<rect shape-rendering="optimizeSpeed"  x="408" y="221" width="17" height="17" fill="black" />
<rect shape-rendering="optimizeSpeed"  x="476" y="221" width="17" height="17" fill="black" />
<rect shape-rendering="optimizeSpeed"  x="0" y="238" width="17" height="17" fill="black" />
<rect shape-rendering="optimizeSpeed"  x="34" y="238" width="17" height="17" fill="black" />
<rect shape-rendering="optimizeSpeed"  x="51" y="238" width="17" height="17" fill="black" />
<rect shape-rendering="optimizeSpeed"  x="85" y="238" width="17" height="17" fill="black" />
<rect shape-rendering="optimizeSpeed"  x="102" y="238" width="17" height="17" fill="black" />
<rect shape-rendering="optimizeSpeed"  x="119" y="238" width="17" height="17" fill="black" />
<rect shape-rendering="optimizeSpeed"  x="221" y="238" width="17" height="17" fill="black" />
<rect shape-rendering="optimizeSpeed"  x="238" y="238" width="17" height="17" fill="black" />
<rect shape-rendering="optimizeSpeed"  x="255" y="238" width="17" height="17" fill="black" />
<rect shape-rendering="optimizeSpeed"  x="340" y="238" width="17" height="17" fill="black" />
<rect shape-rendering="optimizeSpeed"  x="357" y="238" width="17" height="17" fill="black" />
<rect shape-rendering="optimizeSpeed"  x="374" y="238" width="17" height="17" fill="black" />
<rect shape-rendering="optimizeSpeed"  x="391" y="238" width="17" height="17" fill="black" />
<rect shape-rendering="optimizeSpeed"  x="425" y="238" width="17" height="17" fill="black" />
<rect shape-rendering="optimizeSpeed"  x="442" y="238" width="17" height="17" fill="black" />
<rect shape-rendering="optimizeSpeed"  x="0" y="255" width="17" height="17" fill="black" />
<rect shape-rendering="optimizeSpeed"  x="34" y="255" width="17" height="17" fill="black" />
<rect shape-rendering="optimizeSpeed"  x="51" y="255" width="17" height="17" fill="black" />
<rect shape-rendering="optimizeSpeed"  x="68" y="255" width="17" height="17" fill="black" />
<rect shape-rendering="optimizeSpeed"  x="85" y="255" width="17" height="17" fill="black" />
<rect shape-rendering="optimizeSpeed"  x="119" y="255" width="17" height="17" fill="black" />
<rect shape-rendering="optimizeSpeed"  x="136" y="255" width="17" height="17" fill="black" />
<rect shape-rendering="optimizeSpeed"  x="170" y="255" width="17" height="17" fill="black" />
<rect shape-rendering="optimizeSpeed"  x="204" y="255" width="17" height="17" fill="black" />
<rect shape-rendering="optimizeSpeed"  x="238" y="255" width="17" height="17" fill="black" />
<rect shape-rendering="optimizeSpeed"  x="272" y="255" width="17" height="17" fill="black" />
<rect shape-rendering="optimizeSpeed"  x="391" y="255" width="17" height="17" fill="black" />
<rect shape-rendering="optimizeSpeed"  x="408" y="255" width="17" height="17" fill="black" />
<rect shape-rendering="optimizeSpeed"  x="459" y="255" width="17" height="17" fill="black" />
<rect shape-rendering="optimizeSpeed"  x="34" y="272" width="17" height="17" fill="black" />
<rect shape-rendering="optimizeSpeed"  x="68" y="272" width="17" height="17" fill="black" />
<rect shape-rendering="optimizeSpeed"  x="85" y="272" width="17" height="17" fill="black" />
<rect shape-rendering="optimizeSpeed"  x="102" y="272" width="17" height="17" fill="black" />
<rect shape-rendering="optimizeSpeed"  x="119" y="272" width="17" height="17" fill="black" />
<rect shape-rendering="optimizeSpeed"  x="136" y="272" width="17" height="17" fill="black" />
<rect shape-rendering="optimizeSpeed"  x="153" y="272" width="17" height="17" fill="black" />
<rect shape-rendering="optimizeSpeed"  x="170" y="272" width="17" height="17" fill="black" />
<rect shape-rendering="optimizeSpeed"  x="187" y="272" width="17" height="17" fill="black" />
<rect shape-rendering="optimizeSpeed"  x="204" y="272" width="17" height="17" fill="black" />
<rect shape-rendering="optimizeSpeed"  x="221" y="272" width="17" height="17" fill="black" />
<rect shape-rendering="optimizeSpeed"  x="238" y="272" width="17" height="17" fill="black" />
<rect shape-rendering="optimizeSpeed"  x="289" y="272" width="17" height="17" fill="black" />
<rect shape-rendering="optimizeSpeed"  x="323" y="272" width="17" height="17" fill="black" />
<rect shape-rendering="optimizeSpeed"  x="391" y="272" width="17" height="17" fill="black" />
<rect shape-rendering="optimizeSpeed"  x="425" y="272" width="17" height="17" fill="black" />
<rect shape-rendering="optimizeSpeed"  x="442" y="272" width="17" height="17" fill="black" />
<rect shape-rendering="optimizeSpeed"  x="0" y="289" width="17" height="17" fill="black" />
<rect shape-rendering="optimizeSpeed"  x="34" y="289" width="17" height="17" fill="black" />
<rect shape-rendering="optimizeSpeed"  x="136" y="289" width="17" height="17" fill="black" />
<rect shape-rendering="optimizeSpeed"  x="153" y="289" width="17" height="17" fill="black" />
<rect shape-rendering="optimizeSpeed"  x="187" y="289" width="17" height="17" fill="black" />
<rect shape-rendering="optimizeSpeed"  x="221" y="289" width="17" height="17" fill="black" />
<rect shape-rendering="optimizeSpeed"  x="272" y="289" width="17" height="17" fill="black" />
<rect shape-rendering="optimizeSpeed"  x="289" y="289" width="17" height="17" fill="black" />
<rect shape-rendering="optimizeSpeed"  x="306" y="289" width="17" height="17" fill="black" />
<rect shape-rendering="optimizeSpeed"  x="323" y="289" width="17" height="17" fill="black" />
<rect shape-rendering="optimizeSpeed"  x="340" y="289" width="17" height="17" fill="black" />
<rect shape-rendering="optimizeSpeed"  x="357" y="289" width="17" height="17" fill="black" />
<rect shape-rendering="optimizeSpeed"  x="374" y="289" width="17" height="17" fill="black" />
<rect shape-rendering="optimizeSpeed"  x="391" y="289" width="17" height="17" fill="black" />
<rect shape-rendering="optimizeSpeed"  x="408" y="289" width="17" height="17" fill="black" />
<rect shape-rendering="optimizeSpeed"  x="442" y="289" width="17" height="17" fill="black" />
<rect shape-rendering="optimizeSpeed"  x="476" y="289" width="17" height="17" fill="black" />
<rect shape-rendering="optimizeSpeed"  x="0" y="306" width="17" height="17" fill="black" />
<rect shape-rendering="optimizeSpeed"  x="68" y="306" width="17" height="17" fill="black" />
<rect shape-rendering="optimizeSpeed"  x="85" y="306" width="17" height="17" fill="black" />
<rect shape-rendering="optimizeSpeed"  x="102" y="306" width="17" height="17" fill="black" />
<rect shape-rendering="optimizeSpeed"  x="119" y="306" width="17" height="17" fill="black" />
<rect shape-rendering="optimizeSpeed"  x="136" y="306" width="17" height="17" fill="black" />
<rect shape-rendering="optimizeSpeed"  x="170" y="306" width="17" height="17" fill="black" />
<rect shape-rendering="optimizeSpeed"  x="221" y="306" width="17" height="17" fill="black" />
<rect shape-rendering="optimizeSpeed"  x="238" y="306" width="17" height="17" fill="black" />
<rect shape-rendering="optimizeSpeed"  x="255" y="306" width="17" height="17" fill="black" />
<rect shape-rendering="optimizeSpeed"  x="272" y="306" width="17" height="17" fill="black" />
<rect shape-rendering="optimizeSpeed"  x="289" y="306" width="17" height="17" fill="black" />
<rect shape-rendering="optimizeSpeed"  x="357" y="306" width="17" height="17" fill="black" />
<rect shape-rendering="optimizeSpeed"  x="391" y="306" width="17" height="17" fill="black" />
<rect shape-rendering="optimizeSpeed"  x="442" y="306" width="17" height="17" fill="black" />
<rect shape-rendering="optimizeSpeed"  x="0" y="323" width="17" height="17" fill="black" />
<rect shape-rendering="optimizeSpeed"  x="34" y="323" width="17" height="17" fill="black" />
<rect shape-rendering="optimizeSpeed"  x="51" y="323" width="17" height="17" fill="black" />
<rect shape-rendering="optimizeSpeed"  x="68" y="323" width="17" height="17" fill="black" />
<rect shape-rendering="optimizeSpeed"  x="119" y="323" width="17" height="17" fill="black" />
<rect shape-rendering="optimizeSpeed"  x="153" y="323" width="17" height="17" fill="black" />
<rect shape-rendering="optimizeSpeed"  x="272" y="323" width="17" height="17" fill="black" />
<rect shape-rendering="optimizeSpeed"  x="306" y="323" width="17" height="17" fill="black" />
<rect shape-rendering="optimizeSpeed"  x="323" y="323" width="17" height="17" fill="black" />
<rect shape-rendering="optimizeSpeed"  x="340" y="323" width="17" height="17" fill="black" />
<rect shape-rendering="optimizeSpeed"  x="357" y="323" width="17" height="17" fill="black" />
<rect shape-rendering="optimizeSpeed"  x="374" y="323" width="17" height="17" fill="black" />
<rect shape-rendering="optimizeSpeed"  x="391" y="323" width="17" height="17" fill="black" />
<rect shape-rendering="optimizeSpeed"  x="408" y="323" width="17" height="17" fill="black" />
<rect shape-rendering="optimizeSpeed"  x="459" y="323" width="17" height="17" fill="black" />
<rect shape-rendering="optimizeSpeed"  x="0" y="340" width="17" height="17" fill="black" />
<rect shape-rendering="optimizeSpeed"  x="34" y="340" width="17" height="17" fill="black" />
<rect shape-rendering="optimizeSpeed"  x="102" y="340" width="17" height="17" fill="black" />
<rect shape-rendering="optimizeSpeed"  x="136" y="340" width="17" height="17" fill="black" />
<rect shape-rendering="optimizeSpeed"  x="170" y="340" width="17" height="17" fill="black" />
<rect shape-rendering="optimizeSpeed"  x="187" y="340" width="17" height="17" fill="black" />
<rect shape-rendering="optimizeSpeed"  x="204" y="340" width="17" height="17" fill="black" />
<rect shape-rendering="optimizeSpeed"  x="221" y="340" width="17" height="17" fill="black" />
<rect shape-rendering="optimizeSpeed"  x="238" y="340" width="17" height="17" fill="black" />
<rect shape-rendering="optimizeSpeed"  x="289" y="340" width="17" height="17" fill="black" />
<rect shape-rendering="optimizeSpeed"  x="323" y="340" width="17" height="17" fill="black" />
<rect shape-rendering="optimizeSpeed"  x="340" y="340" width="17" height="17" fill="black" />
<rect shape-rendering="optimizeSpeed"  x="357" y="340" width="17" height="17" fill="black" />
<rect shape-rendering="optimizeSpeed"  x="374" y="340" width="17" height="17" fill="black" />
<rect shape-rendering="optimizeSpeed"  x="391" y="340" width="17" height="17" fill="black" />
<rect shape-rendering="optimizeSpeed"  x="408" y="340" width="17" height="17" fill="black" />
<rect shape-rendering="optimizeSpeed"  x="442" y="340" width="17" height="17" fill="black" />
<rect shape-rendering="optimizeSpeed"  x="459" y="340" width="17" height="17" fill="black" />
<rect shape-rendering="optimizeSpeed"  x="476" y="340" width="17" height="17" fill="black" />
<rect shape-rendering="optimizeSpeed"  x="136" y="357" width="17" height="17" fill="black" />
<rect shape-rendering="optimizeSpeed"  x="153" y="357" width="17" height="17" fill="black" />
<rect shape-rendering="optimizeSpeed"  x="187" y="357" width="17" height="17" fill="black" />
<rect shape-rendering="optimizeSpeed"  x="204" y="357" width="17" height="17" fill="black" />
<rect shape-rendering="optimizeSpeed"  x="238" y="357" width="17" height="17" fill="black" />
<rect shape-rendering="optimizeSpeed"  x="272" y="357" width="17" height="17" fill="black" />
<rect shape-rendering="optimizeSpeed"  x="340" y="357" width="17" height="17" fill="black" />
<rect shape-rendering="optimizeSpeed"  x="408" y="357" width="17" height="17" fill="black" />
<rect shape-rendering="optimizeSpeed"  x="425" y="357" width="17" height="17" fill="black" />
<rect shape-rendering="optimizeSpeed"  x="442" y="357" width="17" height="17" fill="black" />
<rect shape-rendering="optimizeSpeed"  x="459" y="357" width="17" height="17" fill="black" />
<rect shape-rendering="optimizeSpeed"  x="476" y="357" width="17" height="17" fill="black" />
<rect shape-rendering="optimizeSpeed"  x="0" y="374" width="17" height="17" fill="black" />
<rect shape-rendering="optimizeSpeed"  x="17" y="374" width="17" height="17" fill="black" />
<rect shape-rendering="optimizeSpeed"  x="34" y="374" width="17" height="17" fill="black" />
<rect shape-rendering="optimizeSpeed"  x="51" y="374" width="17" height="17" fill="black" />
<rect shape-rendering="optimizeSpeed"  x="68" y="374" width="17" height="17" fill="black" />
<rect shape-rendering="optimizeSpeed"  x="85" y="374" width="17" height="17" fill="black" />
<rect shape-rendering="optimizeSpeed"  x="102" y="374" width="17" height="17" fill="black" />
<rect shape-rendering="optimizeSpeed"  x="136" y="374" width="17" height="17" fill="black" />
<rect shape-rendering="optimizeSpeed"  x="153" y="374" width="17" height="17" fill="black" />
<rect shape-rendering="optimizeSpeed"  x="221" y="374" width="17" height="17" fill="black" />
<rect shape-rendering="optimizeSpeed"  x="255" y="374" width="17" height="17" fill="black" />
<rect shape-rendering="optimizeSpeed"  x="272" y="374" width="17" height="17" fill="black" />
<rect shape-rendering="optimizeSpeed"  x="323" y="374" width="17" height="17" fill="black" />
<rect shape-rendering="optimizeSpeed"  x="340" y="374" width="17" height="17" fill="black" />
<rect shape-rendering="optimizeSpeed"  x="374" y="374" width="17" height="17" fill="black" />
<rect shape-rendering="optimizeSpeed"  x="408" y="374" width="17" height="17" fill="black" />
<rect shape-rendering="optimizeSpeed"  x="425" y="374" width="17" height="17" fill="black" />
<rect shape-rendering="optimizeSpeed"  x="442" y="374" width="17" height="17" fill="black" />
<rect shape-rendering="optimizeSpeed"  x="0" y="391" width="17" height="17" fill="black" />
<rect shape-rendering="optimizeSpeed"  x="102" y="391" width="17" height="17" fill="black" />
<rect shape-rendering="optimizeSpeed"  x="238" y="391" width="17" height="17" fill="black" />
<rect shape-rendering="optimizeSpeed"  x="255" y="391" width="17" height="17" fill="black" />
<rect shape-rendering="optimizeSpeed"  x="306" y="391" width="17" height="17" fill="black" />
<rect shape-rendering="optimizeSpeed"  x="340" y="391" width="17" height="17" fill="black" />
<rect shape-rendering="optimizeSpeed"  x="408" y="391" width="17" height="17" fill="black" />
<rect shape-rendering="optimizeSpeed"  x="459" y="391" width="17" height="17" fill="black" />
<rect shape-rendering="optimizeSpeed"  x="0" y="408" width="17" height="17" fill="black" />
<rect shape-rendering="optimizeSpeed"  x="34" y="408" width="17" height="17" fill="black" />
<rect shape-rendering="optimizeSpeed"  x="51" y="408" width="17" height="17" fill="black" />
<rect shape-rendering="optimizeSpeed"  x="68" y="408" width="17" height="17" fill="black" />
<rect shape-rendering="optimizeSpeed"  x="102" y="408" width="17" height="17" fill="black" />
<rect shape-rendering="optimizeSpeed"  x="136" y="408" width="17" height="17" fill="black" />
<rect shape-rendering="optimizeSpeed"  x="153" y="408" width="17" height="17" fill="black" />
<rect shape-rendering="optimizeSpeed"  x="170" y="408" width="17" height="17" fill="black" />
<rect shape-rendering="optimizeSpeed"  x="204" y="408" width="17" height="17" fill="black" />
<rect shape-rendering="optimizeSpeed"  x="221" y="408" width="17" height="17" fill="black" />
<rect shape-rendering="optimizeSpeed"  x="238" y="408" width="17" height="17" fill="black" />
<rect shape-rendering="optimizeSpeed"  x="289" y="408" width="17" height="17" fill="black" />
<rect shape-rendering="optimizeSpeed"  x="340" y="408" width="17" height="17" fill="black" />
<rect shape-rendering="optimizeSpeed"  x="357" y="408" width="17" height="17" fill="black" />
<rect shape-rendering="optimizeSpeed"  x="374" y="408" width="17" height="17" fill="black" />
<rect shape-rendering="optimizeSpeed"  x="391" y="408" width="17" height="17" fill="black" />
<rect shape-rendering="optimizeSpeed"  x="408" y="408" width="17" height="17" fill="black" />
<rect shape-rendering="optimizeSpeed"  x="442" y="408" width="17" height="17" fill="black" />
<rect shape-rendering="optimizeSpeed"  x="0" y="425" width="17" height="17" fill="black" />
<rect shape-rendering="optimizeSpeed"  x="34" y="425" width="17" height="17" fill="black" />
<rect shape-rendering="optimizeSpeed"  x="51" y="425" width="17" height="17" fill="black" />
<rect shape-rendering="optimizeSpeed"  x="68" y="425" width="17" height="17" fill="black" />
<rect shape-rendering="optimizeSpeed"  x="102" y="425" width="17" height="17" fill="black" />
<rect shape-rendering="optimizeSpeed"  x="136" y="425" width="17" height="17" fill="black" />
<rect shape-rendering="optimizeSpeed"  x="187" y="425" width="17" height="17" fill="black" />
<rect shape-rendering="optimizeSpeed"  x="221" y="425" width="17" height="17" fill="black" />
<rect shape-rendering="optimizeSpeed"  x="272" y="425" width="17" height="17" fill="black" />
<rect shape-rendering="optimizeSpeed"  x="306" y="425" width="17" height="17" fill="black" />
<rect shape-rendering="optimizeSpeed"  x="391" y="425" width="17" height="17" fill="black" />
<rect shape-rendering="optimizeSpeed"  x="425" y="425" width="17" height="17" fill="black" />
<rect shape-rendering="optimizeSpeed"  x="442" y="425" width="17" height="17" fill="black" />
<rect shape-rendering="optimizeSpeed"  x="476" y="425" width="17" height="17" fill="black" />
<rect shape-rendering="optimizeSpeed"  x="0" y="442" width="17" height="17" fill="black" />
<rect shape-rendering="optimizeSpeed"  x="34" y="442" width="17" height="17" fill="black" />
<rect shape-rendering="optimizeSpeed"  x="51" y="442" width="17" height="17" fill="black" />
<rect shape-rendering="optimizeSpeed"  x="68" y="442" width="17" height="17" fill="black" />
<rect shape-rendering="optimizeSpeed"  x="102" y="442" width="17" height="17" fill="black" />
<rect shape-rendering="optimizeSpeed"  x="136" y="442" width="17" height="17" fill="black" />
<rect shape-rendering="optimizeSpeed"  x="204" y="442" width="17" height="17" fill="black" />
<rect shape-rendering="optimizeSpeed"  x="255" y="442" width="17" height="17" fill="black" />
<rect shape-rendering="optimizeSpeed"  x="306" y="442" width="17" height="17" fill="black" />
<rect shape-rendering="optimizeSpeed"  x="323" y="442" width="17" height="17" fill="black" />
<rect shape-rendering="optimizeSpeed"  x="340" y="442" width="17" height="17" fill="black" />
<rect shape-rendering="optimizeSpeed"  x="357" y="442" width="17" height="17" fill="black" />
<rect shape-rendering="optimizeSpeed"  x="374" y="442" width="17" height="17" fill="black" />
<rect shape-rendering="optimizeSpeed"  x="391" y="442" width="17" height="17" fill="black" />
<rect shape-rendering="optimizeSpeed"  x="408" y="442" width="17" height="17" fill="black" />
<rect shape-rendering="optimizeSpeed"  x="425" y="442" width="17" height="17" fill="black" />
<rect shape-rendering="optimizeSpeed"  x="442" y="442" width="17" height="17" fill="black" />
<rect shape-rendering="optimizeSpeed"  x="459" y="442" width="17" height="17" fill="black" />
<rect shape-rendering="optimizeSpeed"  x="0" y="459" width="17" height="17" fill="black" />
<rect shape-rendering="optimizeSpeed"  x="102" y="459" width="17" height="17" fill="black" />
<rect shape-rendering="optimizeSpeed"  x="136" y="459" width="17" height="17" fill="black" />
<rect shape-rendering="optimizeSpeed"  x="170" y="459" width="17" height="17" fill="black" />
<rect shape-rendering="optimizeSpeed"  x="187" y="459" width="17" height="17" fill="black" />
<rect shape-rendering="optimizeSpeed"  x="238" y="459" width="17" height="17" fill="black" />
<rect shape-rendering="optimizeSpeed"  x="255" y="459" width="17" height="17" fill="black" />
<rect shape-rendering="optimizeSpeed"  x="272" y="459" width="17" height="17" fill="black" />
<rect shape-rendering="optimizeSpeed"  x="340" y="459" width="17" height="17" fill="black" />
<rect shape-rendering="optimizeSpeed"  x="357" y="459" width="17" height="17" fill="black" />
<rect shape-rendering="optimizeSpeed"  x="391" y="459" width="17" height="17" fill="black" />
<rect shape-rendering="optimizeSpeed"  x="425" y="459" width="17" height="17" fill="black" />
<rect shape-rendering="optimizeSpeed"  x="459" y="459" width="17" height="17" fill="black" />
<rect shape-rendering="optimizeSpeed"  x="0" y="476" width="17" height="17" fill="black" />
<rect shape-rendering="optimizeSpeed"  x="17" y="476" width="17" height="17" fill="black" />
<rect shape-rendering="optimizeSpeed"  x="34" y="476" width="17" height="17" fill="black" />
<rect shape-rendering="optimizeSpeed"  x="51" y="476" width="17" height="17" fill="black" />
<rect shape-rendering="optimizeSpeed"  x="68" y="476" width="17" height="17" fill="black" />
<rect shape-rendering="optimizeSpeed"  x="85" y="476" width="17" height="17" fill="black" />
<rect shape-rendering="optimizeSpeed"  x="102" y="476" width="17" height="17" fill="black" />
<rect shape-rendering="optimizeSpeed"  x="136" y="476" width="17" height="17" fill="black" />
<rect shape-rendering="optimizeSpeed"  x="153" y="476" width="17" height="17" fill="black" />
<rect shape-rendering="optimizeSpeed"  x="170" y="476" width="17" height="17" fill="black" />
<rect shape-rendering="optimizeSpeed"  x="221" y="476" width="17" height="17" fill="black" />
<rect shape-rendering="optimizeSpeed"  x="238" y="476" width="17" height="17" fill="black" />
<rect shape-rendering="optimizeSpeed"  x="255" y="476" width="17" height="17" fill="black" />
<rect shape-rendering="optimizeSpeed"  x="272" y="476" width="17" height="17" fill="black" />
<rect shape-rendering="optimizeSpeed"  x="289" y="476" width="17" height="17" fill="black" />
<rect shape-rendering="optimizeSpeed"  x="323" y="476" width="17" height="17" fill="black" />
<rect shape-rendering="optimizeSpeed"  x="391" y="476" width="17" height="17" fill="black" />
<rect shape-rendering="optimizeSpeed"  x="408" y="476" width="17" height="17" fill="black" />
<rect shape-rendering="optimizeSpeed"  x="425" y="476" width="17" height="17" fill="black" />
<rect shape-rendering="optimizeSpeed"  x="442" y="476" width="17" height="17" fill="black" /></svg>