<?xml version="1.0" encoding="UTF-8"?>
<svg version="1.1" baseProfile="tiny" xmlns="http://www.w3.org/2000/svg" width="500" height="500">
<rect shape-rendering="optimizeSpeed"  x="0" y="0" width="500" height="500" fill="white" />
<rect shape-rendering="optimizeSpeed"  x="25" y="25" width="18" height="18" fill="black" />
<rect shape-rendering="optimizeSpeed"  x="43" y="25" width="18" height="18" fill="black" />
<rect shape-rendering="optimizeSpeed"  x="61" y="25" width="18" height="18" fill="black" />
<rect shape-rendering="optimizeSpeed"  x="79" y="25" width="18" height="18" fill="black" />
<rect shape-rendering="optimizeSpeed"  x="97" y="25" width="18" height="18" fill="black" />
<rect shape-rendering="optimizeSpeed"  x="115" y="25" width="18" height="18" fill="black" />
<rect shape-rendering="optimizeSpeed"  x="133" y="25" width="18" height="18" fill="black" />
<rect shape-rendering="optimizeSpeed"  x="169" y="25" width="18" height="18" fill="black" />
<rect shape-rendering="optimizeSpeed"  x="187" y="25" width="18" height="18" fill="black" />
<rect shape-rendering="optimizeSpeed"  x="223" y="25" width="18" height="18" fill="black" />
<rect shape-rendering="optimizeSpeed"  x="277" y="25" width="18" height="18" fill="black" />
<rect shape-rendering="optimizeSpeed"  x="295" y="25" width="18" height="18" fill="black" />
<rect shape-rendering="optimizeSpeed"  x="313" y="25" width="18" height="18" fill="black" />
<rect shape-rendering="optimizeSpeed"  x="349" y="25" width="18" height="18" fill="black" />
<rect shape-rendering="optimizeSpeed"  x="367" y="25" width="18" height="18" fill="black" />
<rect shape-rendering="optimizeSpeed"  x="385" y="25" width="18" height="18" fill="black" />
<rect shape-rendering="optimizeSpeed"  x="403" y="25" width="18" height="18" fill="black" />
<rect shape-rendering="optimizeSpeed"  x="421" y="25" width="18" height="18" fill="black" />
<rect shape-rendering="optimizeSpeed"  x="439" y="25" width="18" height="18" fill="black" />
<rect shape-rendering="optimizeSpeed"  x="457" y="25" width="18" height="18" fill="black" />
<rect shape-rendering="optimizeSpeed"  x="25" y="43" width="18" height="18" fill="black" />
<rect shape-rendering="optimizeSpeed"  x="133" y="43" width="18" height="18" fill="black" />
<rect shape-rendering="optimizeSpeed"  x="205" y="43" width="18" height="18" fill="black" />
<rect shape-rendering="optimizeSpeed"  x="223" y="43" width="18" height="18" fill="black" />
<rect shape-rendering="optimizeSpeed"  x="259" y="43" width="18" height="18" fill="black" />
<rect shape-rendering="optimizeSpeed"  x="349" y="43" width="18" height="18" fill="black" />
<rect shape-rendering="optimizeSpeed"  x="457" y="43" width="18" height="18" fill="black" />
<rect shape-rendering="optimizeSpeed"  x="25" y="61" width="18" height="18" fill="black" />
<rect shape-rendering="optimizeSpeed"  x="61" y="61" width="18" height="18" fill="black" />
<rect shape-rendering="optimizeSpeed"  x="79" y="61" width="18" height="18" fill="black" />
<rect shape-rendering="optimizeSpeed"  x="97" y="61" width="18" height="18" fill="black" />
<rect shape-rendering="optimizeSpeed"  x="133" y="61" width="18" height="18" fill="black" />
<rect shape-rendering="optimizeSpeed"  x="169" y="61" width="18" height="18" fill="black" />
<rect shape-rendering="optimizeSpeed"  x="205" y="61" width="18" height="18" fill="black" />
<rect shape-rendering="optimizeSpeed"  x="223" y="61" width="18" height="18" fill="black" />
<rect shape-rendering="optimizeSpeed"  x="241" y="61" width="18" height="18" fill="black" />
<rect shape-rendering="optimizeSpeed"  x="259" y="61" width="18" height="18" fill="black" />
<rect shape-rendering="optimizeSpeed"  x="313" y="61" width="18" height="18" fill="black" />
<rect shape-rendering="optimizeSpeed"  x="349" y="61" width="18" height="18" fill="black" />
<rect shape-rendering="optimizeSpeed"  x="385" y="61" width="18" height="18" fill="black" />
<rect shape-rendering="optimizeSpeed"  x="403" y="61" width="18" height="18" fill="black" />
<rect shape-rendering="optimizeSpeed"  x="421" y="61" width="18" height="18" fill="black" />
<rect shape-rendering="optimizeSpeed"  x="457" y="61" width="18" height="18" fill="black" />
<rect shape-rendering="optimizeSpeed"  x="25" y="79" width="18" height="18" fill="black" />
<rect shape-rendering="optimizeSpeed"  x="61" y="79" width="18" height="18" fill="black" />
<rect shape-rendering="optimizeSpeed"  x="79" y="79" width="18" height="18" fill="black" />
<rect shape-rendering="optimizeSpeed"  x="97" y="79" width="18" height="18" fill="black" />
<rect shape-rendering="optimizeSpeed"  x="133" y="79" width="18" height="18" fill="black" />
<rect shape-rendering="optimizeSpeed"  x="169" y="79" width="18" height="18" fill="black" />
<rect shape-rendering="optimizeSpeed"  x="223" y="79" width="18" height="18" fill="black" />
<rect shape-rendering="optimizeSpeed"  x="241" y="79" width="18" height="18" fill="black" />
<rect shape-rendering="optimizeSpeed"  x="259" y="79" width="18" height="18" fill="black" />
<rect shape-rendering="optimizeSpeed"  x="295" y="79" width="18" height="18" fill="black" />
<rect shape-rendering="optimizeSpeed"  x="313" y="79" width="18" height="18" fill="black" />
<rect shape-rendering="optimizeSpeed"  x="349" y="79" width="18" height="18" fill="black" />
<rect shape-rendering="optimizeSpeed"  x="385" y="79" width="18" height="18" fill="black" />
<rect shape-rendering="optimizeSpeed"  x="403" y="79" width="18" height="18" fill="black" />
<rect shape-rendering="optimizeSpeed"  x="421" y="79" width="18" height="18" fill="black" />
<rect shape-rendering="optimizeSpeed"  x="457" y="79" width="18" height="18" fill="black" />
<rect shape-rendering="optimizeSpeed"  x="25" y="97" width="18" height="18" fill="black" />
<rect shape-rendering="optimizeSpeed"  x="61" y="97" width="18" height="18" fill="black" />
<rect shape-rendering="optimizeSpeed"  x="79" y="97" width="18" height="18" fill="black" />
<rect shape-rendering="optimizeSpeed"  x="97" y="97" width="18" height="18" fill="black" />
<rect shape-rendering="optimizeSpeed"  x="133" y="97" width="18" height="18" fill="black" />
<rect shape-rendering="optimizeSpeed"  x="169" y="97" width="18" height="18" fill="black" />
<rect shape-rendering="optimizeSpeed"  x="187" y="97" width="18" height="18" fill="black" />
<rect shape-rendering="optimizeSpeed"  x="241" y="97" width="18" height="18" fill="black" />
<rect shape-rendering="optimizeSpeed"  x="313" y="97" width="18" height="18" fill="black" />
<rect shape-rendering="optimizeSpeed"  x="349" y="97" width="18" height="18" fill="black" />
<rect shape-rendering="optimizeSpeed"  x="385" y="97" width="18" height="18" fill="black" />
<rect shape-rendering="optimizeSpeed"  x="403" y="97" width="18" height="18" fill="black" />
<rect shape-rendering="optimizeSpeed"  x="421" y="97" width="18" height="18" fill="black" />
<rect shape-rendering="optimizeSpeed"  x="457" y="97" width="18" height="18" fill="black" />
<rect shape-rendering="optimizeSpeed"  x="25" y="115" width="18" height="18" fill="black" />
<rect shape-rendering="optimizeSpeed"  x="133" y="115" width="18" height="18" fill="black" />
<rect shape-rendering="optimizeSpeed"  x="187" y="115" width="18" height="18" fill="black" />
<rect shape-rendering="optimizeSpeed"  x="241" y="115" width="18" height="18" fill="black" />
<rect shape-rendering="optimizeSpeed"  x="259" y="115" width="18" height="18" fill="black" />
<rect shape-rendering="optimizeSpeed"  x="349" y="115" width="18" height="18" fill="black" />
<rect shape-rendering="optimizeSpeed"  x="457" y="115" width="18" height="18" fill="black" />
<rect shape-rendering="optimizeSpeed"  x="25" y="133" width="18" height="18" fill="black" />
<rect shape-rendering="optimizeSpeed"  x="43" y="133" width="18" height="18" fill="black" />
<rect shape-rendering="optimizeSpeed"  x="61" y="133" width="18" height="18" fill="black" />
<rect shape-rendering="optimizeSpeed"  x="79" y="133" width="18" height="18" fill="black" />
<rect shape-rendering="optimizeSpeed"  x="97" y="133" width="18" height="18" fill="black" />
<rect shape-rendering="optimizeSpeed"  x="115" y="133" width="18" height="18" fill="black" />
<rect shape-rendering="optimizeSpeed"  x="133" y="133" width="18" height="18" fill="black" />
<rect shape-rendering="optimizeSpeed"  x="169" y="133" width="18" height="18" fill="black" />
<rect shape-rendering="optimizeSpeed"  x="205" y="133" width="18" height="18" fill="black" />
<rect shape-rendering="optimizeSpeed"  x="241" y="133" width="18" height="18" fill="black" />
<rect shape-rendering="optimizeSpeed"  x="277" y="133" width="18" height="18" fill="black" />
<rect shape-rendering="optimizeSpeed"  x="313" y="133" width="18" height="18" fill="black" />
<rect shape-rendering="optimizeSpeed"  x="349" y="133" width="18" height="18" fill="black" />
<rect shape-rendering="optimizeSpeed"  x="367" y="133" width="18" height="18" fill="black" />
<rect shape-rendering="optimizeSpeed"  x="385" y="133" width="18" height="18" fill="black" />
<rect shape-rendering="optimizeSpeed"  x="403" y="133" width="18" height="18" fill="black" />
<rect shape-rendering="optimizeSpeed"  x="421" y="133" width="18" height="18" fill="black" />
<rect shape-rendering="optimizeSpeed"  x="439" y="133" width="18" height="18" fill="black" />
<rect shape-rendering="optimizeSpeed"  x="457" y="133" width="18" height="18" fill="black" />
<rect shape-rendering="optimizeSpeed"  x="205" y="151" width="18" height="18" fill="black" />
<rect shape-rendering="optimizeSpeed"  x="223" y="151" width="18" height="18" fill="black" />
<rect shape-rendering="optimizeSpeed"  x="241" y="151" width="18" height="18" fill="black" />
<rect shape-rendering="optimizeSpeed"  x="313" y="151" width="18" height="18" fill="black" />
<rect shape-rendering="optimizeSpeed"  x="25" y="169" width="18" height="18" fill="black" />
<rect shape-rendering="optimizeSpeed"  x="43" y="169" width="18" height="18" fill="black" />
<rect shape-rendering="optimizeSpeed"  x="61" y="169" width="18" height="18" fill="black" />
<rect shape-rendering="optimizeSpeed"  x="79" y="169" width="18" height="18" fill="black" />
<rect shape-rendering="optimizeSpeed"  x="133" y="169" width="18" height="18" fill="black" />
<rect shape-rendering="optimizeSpeed"  x="169" y="169" width="18" height="18" fill="black" />
<rect shape-rendering="optimizeSpeed"  x="205" y="169" width="18" height="18" fill="black" />
<rect shape-rendering="optimizeSpeed"  x="295" y="169" width="18" height="18" fill="black" />
<rect shape-rendering="optimizeSpeed"  x="313" y="169" width="18" height="18" fill="black" />
<rect shape-rendering="optimizeSpeed"  x="331" y="169" width="18" height="18" fill="black" />
<rect shape-rendering="optimizeSpeed"  x="385" y="169" width="18" height="18" fill="black" />
<rect shape-rendering="optimizeSpeed"  x="403" y="169" width="18" height="18" fill="black" />
<rect shape-rendering="optimizeSpeed"  x="421" y="169" width="18" height="18" fill="black" />
<rect shape-rendering="optimizeSpeed"  x="457" y="169" width="18" height="18" fill="black" />
<rect shape-rendering="optimizeSpeed"  x="61" y="187" width="18" height="18" fill="black" />
<rect shape-rendering="optimizeSpeed"  x="79" y="187" width="18" height="18" fill="black" />
<rect shape-rendering="optimizeSpeed"  x="97" y="187" width="18" height="18" fill="black" />
<rect shape-rendering="optimizeSpeed"  x="151" y="187" width="18" height="18" fill="black" />
<rect shape-rendering="optimizeSpeed"  x="169" y="187" width="18" height="18" fill="black" />
<rect shape-rendering="optimizeSpeed"  x="223" y="187" width="18" height="18" fill="black" />
<rect shape-rendering="optimizeSpeed"  x="277" y="187" width="18" height="18" fill="black" />
<rect shape-rendering="optimizeSpeed"  x="331" y="187" width="18" height="18" fill="black" />
<rect shape-rendering="optimizeSpeed"  x="439" y="187" width="18" height="18" fill="black" />
<rect shape-rendering="optimizeSpeed"  x="43" y="205" width="18" height="18" fill="black" />
<rect shape-rendering="optimizeSpeed"  x="79" y="205" width="18" height="18" fill="black" />
<rect shape-rendering="optimizeSpeed"  x="97" y="205" width="18" height="18" fill="black" />
<rect shape-rendering="optimizeSpeed"  x="115" y="205" width="18" height="18" fill="black" />
<rect shape-rendering="optimizeSpeed"  x="133" y="205" width="18" height="18" fill="black" />
<rect shape-rendering="optimizeSpeed"  x="169" y="205" width="18" height="18" fill="black" />
<rect shape-rendering="optimizeSpeed"  x="187" y="205" width="18" height="18" fill="black" />
<rect shape-rendering="optimizeSpeed"  x="205" y="205" width="18" height="18" fill="black" />
<rect shape-rendering="optimizeSpeed"  x="223" y="205" width="18" height="18" fill="black" />
<rect shape-rendering="optimizeSpeed"  x="259" y="205" width="18" height="18" fill="black" />
<rect shape-rendering="optimizeSpeed"  x="331" y="205" width="18" height="18" fill="black" />
<rect shape-rendering="optimizeSpeed"  x="385" y="205" width="18" height="18" fill="black" />
<rect shape-rendering="optimizeSpeed"  x="25" y="223" width="18" height="18" fill="black" />
<rect shape-rendering="optimizeSpeed"  x="43" y="223" width="18" height="18" fill="black" />
<rect shape-rendering="optimizeSpeed"  x="61" y="223" width="18" height="18" fill="black" />
<rect shape-rendering="optimizeSpeed"  x="151" y="223" width="18" height="18" fill="black" />
<rect shape-rendering="optimizeSpeed"  x="187" y="223" width="18" height="18" fill="black" />
<rect shape-rendering="optimizeSpeed"  x="205" y="223" width="18" height="18" fill="black" />
<rect shape-rendering="optimizeSpeed"  x="241" y="223" width="18" height="18" fill="black" />
<rect shape-rendering="optimizeSpeed"  x="259" y="223" width="18" height="18" fill="black" />
<rect shape-rendering="optimizeSpeed"  x="277" y="223" width="18" height="18" fill="black" />
<rect shape-rendering="optimizeSpeed"  x="313" y="223" width="18" height="18" fill="black" />
<rect shape-rendering="optimizeSpeed"  x="331" y="223" width="18" height="18" fill="black" />
<rect shape-rendering="optimizeSpeed"  x="367" y="223" width="18" height="18" fill="black" />
<rect shape-rendering="optimizeSpeed"  x="403" y="223" width="18" height="18" fill="black" />
<rect shape-rendering="optimizeSpeed"  x="421" y="223" width="18" height="18" fill="black" />
<rect shape-rendering="optimizeSpeed"  x="25" y="241" width="18" height="18" fill="black" />
<rect shape-rendering="optimizeSpeed"  x="133" y="241" width="18" height="18" fill="black" />
<rect shape-rendering="optimizeSpeed"  x="187" y="241" width="18" height="18" fill="black" />
<rect shape-rendering="optimizeSpeed"  x="205" y="241" width="18" height="18" fill="black" />
<rect shape-rendering="optimizeSpeed"  x="259" y="241" width="18" height="18" fill="black" />
<rect shape-rendering="optimizeSpeed"  x="295" y="241" width="18" height="18" fill="black" />
<rect shape-rendering="optimizeSpeed"  x="313" y="241" width="18" height="18" fill="black" />
<rect shape-rendering="optimizeSpeed"  x="349" y="241" width="18" height="18" fill="black" />
<rect shape-rendering="optimizeSpeed"  x="367" y="241" width="18" height="18" fill="black" />
<rect shape-rendering="optimizeSpeed"  x="385" y="241" width="18" height="18" fill="black" />
<rect shape-rendering="optimizeSpeed"  x="421" y="241" width="18" height="18" fill="black" />
<rect shape-rendering="optimizeSpeed"  x="439" y="241" width="18" height="18" fill="black" />
<rect shape-rendering="optimizeSpeed"  x="457" y="241" width="18" height="18" fill="black" />
<rect shape-rendering="optimizeSpeed"  x="43" y="259" width="18" height="18" fill="black" />
<rect shape-rendering="optimizeSpeed"  x="115" y="259" width="18" height="18" fill="black" />
<rect shape-rendering="optimizeSpeed"  x="169" y="259" width="18" height="18" fill="black" />
<rect shape-rendering="optimizeSpeed"  x="187" y="259" width="18" height="18" fill="black" />
<rect shape-rendering="optimizeSpeed"  x="241" y="259" width="18" height="18" fill="black" />
<rect shape-rendering="optimizeSpeed"  x="259" y="259" width="18" height="18" fill="black" />
<rect shape-rendering="optimizeSpeed"  x="295" y="259" width="18" height="18" fill="black" />
<rect shape-rendering="optimizeSpeed"  x="349" y="259" width="18" height="18" fill="black" />
<rect shape-rendering="optimizeSpeed"  x="385" y="259" width="18" height="18" fill="black" />
<rect shape-rendering="optimizeSpeed"  x="457" y="259" width="18" height="18" fill="black" />
<rect shape-rendering="optimizeSpeed"  x="43" y="277" width="18" height="18" fill="black" />
<rect shape-rendering="optimizeSpeed"  x="79" y="277" width="18" height="18" fill="black" />
<rect shape-rendering="optimizeSpeed"  x="133" y="277" width="18" height="18" fill="black" />
<rect shape-rendering="optimizeSpeed"  x="187" y="277" width="18" height="18" fill="black" />
<rect shape-rendering="optimizeSpeed"  x="205" y="277" width="18" height="18" fill="black" />
<rect shape-rendering="optimizeSpeed"  x="259" y="277" width="18" height="18" fill="black" />
<rect shape-rendering="optimizeSpeed"  x="313" y="277" width="18" height="18" fill="black" />
<rect shape-rendering="optimizeSpeed"  x="349" y="277" width="18" height="18" fill="black" />
<rect shape-rendering="optimizeSpeed"  x="367" y="277" width="18" height="18" fill="black" />
<rect shape-rendering="optimizeSpeed"  x="385" y="277" width="18" height="18" fill="black" />
<rect shape-rendering="optimizeSpeed"  x="421" y="277" width="18" height="18" fill="black" />
<rect shape-rendering="optimizeSpeed"  x="439" y="277" width="18" height="18" fill="black" />
<rect shape-rendering="optimizeSpeed"  x="25" y="295" width="18" height="18" fill="black" />
<rect shape-rendering="optimizeSpeed"  x="79" y="295" width="18" height="18" fill="black" />
<rect shape-rendering="optimizeSpeed"  x="223" y="295" width="18" height="18" fill="black" />
<rect shape-rendering="optimizeSpeed"  x="277" y="295" width="18" height="18" fill="black" />
<rect shape-rendering="optimizeSpeed"  x="349" y="295" width="18" height="18" fill="black" />
<rect shape-rendering="optimizeSpeed"  x="403" y="295" width="18" height="18" fill="black" />
<rect shape-rendering="optimizeSpeed"  x="457" y="295" width="18" height="18" fill="black" />
<rect shape-rendering="optimizeSpeed"  x="61" y="313" width="18" height="18" fill="black" />
<rect shape-rendering="optimizeSpeed"  x="79" y="313" width="18" height="18" fill="black" />
<rect shape-rendering="optimizeSpeed"  x="97" y="313" width="18" height="18" fill="black" />
<rect shape-rendering="optimizeSpeed"  x="115" y="313" width="18" height="18" fill="black" />
<rect shape-rendering="optimizeSpeed"  x="133" y="313" width="18" height="18" fill="black" />
<rect shape-rendering="optimizeSpeed"  x="187" y="313" width="18" height="18" fill="black" />
<rect shape-rendering="optimizeSpeed"  x="205" y="313" width="18" height="18" fill="black" />
<rect shape-rendering="optimizeSpeed"  x="259" y="313" width="18" height="18" fill="black" />
<rect shape-rendering="optimizeSpeed"  x="277" y="313" width="18" height="18" fill="black" />
<rect shape-rendering="optimizeSpeed"  x="313" y="313" width="18" height="18" fill="black" />
<rect shape-rendering="optimizeSpeed"  x="331" y="313" width="18" height="18" fill="black" />
<rect shape-rendering="optimizeSpeed"  x="349" y="313" width="18" height="18" fill="black" />
<rect shape-rendering="optimizeSpeed"  x="367" y="313" width="18" height="18" fill="black" />
<rect shape-rendering="optimizeSpeed"  x="385" y="313" width="18" height="18" fill="black" />
<rect shape-rendering="optimizeSpeed"  x="403" y="313" width="18" height="18" fill="black" />
<rect shape-rendering="optimizeSpeed"  x="421" y="313" width="18" height="18" fill="black" />
<rect shape-rendering="optimizeSpeed"  x="439" y="313" width="18" height="18" fill="black" />
<rect shape-rendering="optimizeSpeed"  x="457" y="313" width="18" height="18" fill="black" />
<rect shape-rendering="optimizeSpeed"  x="169" y="331" width="18" height="18" fill="black" />
<rect shape-rendering="optimizeSpeed"  x="223" y="331" width="18" height="18" fill="black" />
<rect shape-rendering="optimizeSpeed"  x="241" y="331" width="18" height="18" fill="black" />
<rect shape-rendering="optimizeSpeed"  x="295" y="331" width="18" height="18" fill="black" />
<rect shape-rendering="optimizeSpeed"  x="313" y="331" width="18" height="18" fill="black" />
<rect shape-rendering="optimizeSpeed"  x="385" y="331" width="18" height="18" fill="black" />
<rect shape-rendering="optimizeSpeed"  x="457" y="331" width="18" height="18" fill="black" />
<rect shape-rendering="optimizeSpeed"  x="25" y="349" width="18" height="18" fill="black" />
<rect shape-rendering="optimizeSpeed"  x="43" y="349" width="18" height="18" fill="black" />
<rect shape-rendering="optimizeSpeed"  x="61" y="349" width="18" height="18" fill="black" />
<rect shape-rendering="optimizeSpeed"  x="79" y="349" width="18" height="18" fill="black" />
<rect shape-rendering="optimizeSpeed"  x="97" y="349" width="18" height="18" fill="black" />
<rect shape-rendering="optimizeSpeed"  x="115" y="349" width="18" height="18" fill="black" />
<rect shape-rendering="optimizeSpeed"  x="133" y="349" width="18" height="18" fill="black" />
<rect shape-rendering="optimizeSpeed"  x="205" y="349" width="18" height="18" fill="black" />
<rect shape-rendering="optimizeSpeed"  x="277" y="349" width="18" height="18" fill="black" />
<rect shape-rendering="optimizeSpeed"  x="313" y="349" width="18" height="18" fill="black" />
<rect shape-rendering="optimizeSpeed"  x="349" y="349" width="18" height="18" fill="black" />
<rect shape-rendering="optimizeSpeed"  x="385" y="349" width="18" height="18" fill="black" />
<rect shape-rendering="optimizeSpeed"  x="403" y="349" width="18" height="18" fill="black" />
<rect shape-rendering="optimizeSpeed"  x="421" y="349" width="18" height="18" fill="black" />
<rect shape-rendering="optimizeSpeed"  x="439" y="349" width="18" height="18" fill="black" />
<rect shape-rendering="optimizeSpeed"  x="457" y="349" width="18" height="18" fill="black" />
<rect shape-rendering="optimizeSpeed"  x="25" y="367" width="18" height="18" fill="black" />
<rect shape-rendering="optimizeSpeed"  x="133" y="367" width="18" height="18" fill="black" />
<rect shape-rendering="optimizeSpeed"  x="205" y="367" width="18" height="18" fill="black" />
<rect shape-rendering="optimizeSpeed"  x="241" y="367" width="18" height="18" fill="black" />
<rect shape-rendering="optimizeSpeed"  x="313" y="367" width="18" height="18" fill="black" />
<rect shape-rendering="optimizeSpeed"  x="385" y="367" width="18" height="18" fill="black" />
<rect shape-rendering="optimizeSpeed"  x="457" y="367" width="18" height="18" fill="black" />
<rect shape-rendering="optimizeSpeed"  x="25" y="385" width="18" height="18" fill="black" />
<rect shape-rendering="optimizeSpeed"  x="61" y="385" width="18" height="18" fill="black" />
<rect shape-rendering="optimizeSpeed"  x="79" y="385" width="18" height="18" fill="black" />
<rect shape-rendering="optimizeSpeed"  x="97" y="385" width="18" height="18" fill="black" />
<rect shape-rendering="optimizeSpeed"  x="133" y="385" width="18" height="18" fill="black" />
<rect shape-rendering="optimizeSpeed"  x="223" y="385" width="18" height="18" fill="black" />
<rect shape-rendering="optimizeSpeed"  x="259" y="385" width="18" height="18" fill="black" />
<rect shape-rendering="optimizeSpeed"  x="277" y="385" width="18" height="18" fill="black" />
<rect shape-rendering="optimizeSpeed"  x="313" y="385" width="18" height="18" fill="black" />
<rect shape-rendering="optimizeSpeed"  x="331" y="385" width="18" height="18" fill="black" />
<rect shape-rendering="optimizeSpeed"  x="349" y="385" width="18" height="18" fill="black" />
<rect shape-rendering="optimizeSpeed"  x="367" y="385" width="18" height="18" fill="black" />
<rect shape-rendering="optimizeSpeed"  x="385" y="385" width="18" height="18" fill="black" />
<rect shape-rendering="optimizeSpeed"  x="439" y="385" width="18" height="18" fill="black" />
<rect shape-rendering="optimizeSpeed"  x="457" y="385" width="18" height="18" fill="black" />
<rect shape-rendering="optimizeSpeed"  x="25" y="403" width="18" height="18" fill="black" />
<rect shape-rendering="optimizeSpeed"  x="61" y="403" width="18" height="18" fill="black" />
<rect shape-rendering="optimizeSpeed"  x="79" y="403" width="18" height="18" fill="black" />
<rect shape-rendering="optimizeSpeed"  x="97" y="403" width="18" height="18" fill="black" />
<rect shape-rendering="optimizeSpeed"  x="133" y="403" width="18" height="18" fill="black" />
<rect shape-rendering="optimizeSpeed"  x="169" y="403" width="18" height="18" fill="black" />
<rect shape-rendering="optimizeSpeed"  x="205" y="403" width="18" height="18" fill="black" />
<rect shape-rendering="optimizeSpeed"  x="223" y="403" width="18" height="18" fill="black" />
<rect shape-rendering="optimizeSpeed"  x="349" y="403" width="18" height="18" fill="black" />
<rect shape-rendering="optimizeSpeed"  x="367" y="403" width="18" height="18" fill="black" />
<rect shape-rendering="optimizeSpeed"  x="385" y="403" width="18" height="18" fill="black" />
<rect shape-rendering="optimizeSpeed"  x="421" y="403" width="18" height="18" fill="black" />
<rect shape-rendering="optimizeSpeed"  x="439" y="403" width="18" height="18" fill="black" />
<rect shape-rendering="optimizeSpeed"  x="457" y="403" width="18" height="18" fill="black" />
<rect shape-rendering="optimizeSpeed"  x="25" y="421" width="18" height="18" fill="black" />
<rect shape-rendering="optimizeSpeed"  x="61" y="421" width="18" height="18" fill="black" />
<rect shape-rendering="optimizeSpeed"  x="79" y="421" width="18" height="18" fill="black" />
<rect shape-rendering="optimizeSpeed"  x="97" y="421" width="18" height="18" fill="black" />
<rect shape-rendering="optimizeSpeed"  x="133" y="421" width="18" height="18" fill="black" />
<rect shape-rendering="optimizeSpeed"  x="169" y="421" width="18" height="18" fill="black" />
<rect shape-rendering="optimizeSpeed"  x="205" y="421" width="18" height="18" fill="black" />
<rect shape-rendering="optimizeSpeed"  x="223" y="421" width="18" height="18" fill="black" />
<rect shape-rendering="optimizeSpeed"  x="259" y="421" width="18" height="18" fill="black" />
<rect shape-rendering="optimizeSpeed"  x="349" y="421" width="18" height="18" fill="black" />
<rect shape-rendering="optimizeSpeed"  x="385" y="421" width="18" height="18" fill="black" />
<rect shape-rendering="optimizeSpeed"  x="403" y="421" width="18" height="18" fill="black" />
<rect shape-rendering="optimizeSpeed"  x="421" y="421" width="18" height="18" fill="black" />
<rect shape-rendering="optimizeSpeed"  x="439" y="421" width="18" height="18" fill="black" />
<rect shape-rendering="optimizeSpeed"  x="25" y="439" width="18" height="18" fill="black" />
<rect shape-rendering="optimizeSpeed"  x="133" y="439" width="18" height="18" fill="black" />
<rect shape-rendering="optimizeSpeed"  x="169" y="439" width="18" height="18" fill="black" />
<rect shape-rendering="optimizeSpeed"  x="223" y="439" width="18" height="18" fill="black" />
<rect shape-rendering="optimizeSpeed"  x="259" y="439" width="18" height="18" fill="black" />
<rect shape-rendering="optimizeSpeed"  x="295" y="439" width="18" height="18" fill="black" />
<rect shape-rendering="optimizeSpeed"  x="385" y="439" width="18" height="18" fill="black" />
<rect shape-rendering="optimizeSpeed"  x="421" y="439" width="18" height="18" fill="black" />
<rect shape-rendering="optimizeSpeed"  x="25" y="457" width="18" height="18" fill="black" />
<rect shape-rendering="optimizeSpeed"  x="43" y="457" width="18" height="18" fill="black" />
<rect shape-rendering="optimizeSpeed"  x="61" y="457" width="18" height="18" fill="black" />
<rect shape-rendering="optimizeSpeed"  x="79" y="457" width="18" height="18" fill="black" />
<rect shape-rendering="optimizeSpeed"  x="97" y="457" width="18" height="18" fill="black" />
<rect shape-rendering="optimizeSpeed"  x="115" y="457" width="18" height="18" fill="black" />
<rect shape-rendering="optimizeSpeed"  x="133" y="457" width="18" height="18" fill="black" />
<rect shape-rendering="optimizeSpeed"  x="169" y="457" width="18" height="18" fill="black" />
<rect shape-rendering="optimizeSpeed"  x="259" y="457" width="18" height="18" fill="black" />
<rect shape-rendering="optimizeSpeed"  x="277" y="457" width="18" height="18" fill="black" />
<rect shape-rendering="optimizeSpeed"  x="295" y="457" width="18" height="18" fill="black" />
<rect shape-rendering="optimizeSpeed"  x="331" y="457" width="18" height="18" fill="black" />
<rect shape-rendering="optimizeSpeed"  x="349" y="457" width="18" height="18" fill="black" />
<rect shape-rendering="optimizeSpeed"  x="367" y="457" width="18" height="18" fill="black" />
<rect shape-rendering="optimizeSpeed"  x="385" y="457" width="18" height="18" fill="black" />
<rect shape-rendering="optimizeSpeed"  x="403" y="457" width="18" height="18" fill="black" />
<rect shape-rendering="optimizeSpeed"  x="421" y="457" width="18" height="18" fill="black" />
<rect shape-rendering="optimizeSpeed"  x="439" y="457" width="18" height="18" fill="black" />
<rect shape-rendering="optimizeSpeed"  x="457" y="457" width="18" height="18" fill="black" /></svg>